<svg xmlns="http://www.w3.org/2000/svg" width="920" height="432" viewBox="0 0 920 432" font-family="system-ui,-apple-system,'Segoe UI',Roboto,Helvetica,Arial,sans-serif">
<rect width="920" height="432" fill="#ffffff"/>
<text x="40" y="46" font-size="24" font-weight="700" fill="#16202e">The recall-safe cutoff, on our session</text>
<text x="40" y="72" font-size="14" fill="#8892a0">Every shot at our rim, scored 0–1. The deployed cutoff sits just under the weakest make of the session.</text>
<rect x="214" y="106" width="105.2" height="228" fill="#f6ece7"/>
<line x1="319.2" y1="100" x2="319.2" y2="336" stroke="#c9553d" stroke-width="2.5" stroke-dasharray="5 4"/>
<circle cx="253.8" cy="267.9" r="2.6" fill="#7e8896" opacity="0.5"/>
<circle cx="284.4" cy="254.1" r="2.6" fill="#7e8896" opacity="0.5"/>
<circle cx="631.7" cy="294.1" r="2.6" fill="#7e8896" opacity="0.5"/>
<circle cx="657.8" cy="247.8" r="2.6" fill="#7e8896" opacity="0.5"/>
<circle cx="317.6" cy="284.9" r="2.6" fill="#7e8896" opacity="0.5"/>
<circle cx="231.3" cy="271.3" r="2.6" fill="#7e8896" opacity="0.5"/>
<circle cx="454.6" cy="246.6" r="2.6" fill="#7e8896" opacity="0.5"/>
<circle cx="714.5" cy="282.6" r="2.6" fill="#7e8896" opacity="0.5"/>
<circle cx="661.9" cy="245.0" r="2.6" fill="#7e8896" opacity="0.5"/>
<circle cx="374.3" cy="276.7" r="2.6" fill="#7e8896" opacity="0.5"/>
<circle cx="427.5" cy="247.6" r="2.6" fill="#7e8896" opacity="0.5"/>
<circle cx="341.6" cy="249.3" r="2.6" fill="#7e8896" opacity="0.5"/>
<circle cx="521.2" cy="276.0" r="2.6" fill="#7e8896" opacity="0.5"/>
<circle cx="481.2" cy="308.1" r="2.6" fill="#7e8896" opacity="0.5"/>
<circle cx="286.6" cy="251.9" r="2.6" fill="#7e8896" opacity="0.5"/>
<circle cx="525.5" cy="259.9" r="2.6" fill="#7e8896" opacity="0.5"/>
<circle cx="282.3" cy="292.2" r="2.6" fill="#7e8896" opacity="0.5"/>
<circle cx="499.5" cy="317.8" r="2.6" fill="#7e8896" opacity="0.5"/>
<circle cx="326.7" cy="288.2" r="2.6" fill="#7e8896" opacity="0.5"/>
<circle cx="466.5" cy="273.7" r="2.6" fill="#7e8896" opacity="0.5"/>
<circle cx="499.0" cy="320.1" r="2.6" fill="#7e8896" opacity="0.5"/>
<circle cx="587.8" cy="245.7" r="2.6" fill="#7e8896" opacity="0.5"/>
<circle cx="251.0" cy="310.7" r="2.6" fill="#7e8896" opacity="0.5"/>
<circle cx="278.6" cy="265.2" r="2.6" fill="#7e8896" opacity="0.5"/>
<circle cx="285.3" cy="253.5" r="2.6" fill="#7e8896" opacity="0.5"/>
<circle cx="444.9" cy="251.4" r="2.6" fill="#7e8896" opacity="0.5"/>
<circle cx="493.7" cy="266.7" r="2.6" fill="#7e8896" opacity="0.5"/>
<circle cx="226.6" cy="307.3" r="2.6" fill="#7e8896" opacity="0.5"/>
<circle cx="376.0" cy="256.5" r="2.6" fill="#7e8896" opacity="0.5"/>
<circle cx="477.8" cy="288.5" r="2.6" fill="#7e8896" opacity="0.5"/>
<circle cx="249.9" cy="293.1" r="2.6" fill="#7e8896" opacity="0.5"/>
<circle cx="402.7" cy="271.8" r="2.6" fill="#7e8896" opacity="0.5"/>
<circle cx="569.8" cy="285.8" r="2.6" fill="#7e8896" opacity="0.5"/>
<circle cx="412.2" cy="247.0" r="2.6" fill="#7e8896" opacity="0.5"/>
<circle cx="330.7" cy="246.8" r="2.6" fill="#7e8896" opacity="0.5"/>
<circle cx="538.1" cy="258.5" r="2.6" fill="#7e8896" opacity="0.5"/>
<circle cx="288.6" cy="296.4" r="2.6" fill="#7e8896" opacity="0.5"/>
<circle cx="499.4" cy="276.2" r="2.6" fill="#7e8896" opacity="0.5"/>
<circle cx="517.5" cy="267.1" r="2.6" fill="#7e8896" opacity="0.5"/>
<circle cx="249.6" cy="288.8" r="2.6" fill="#7e8896" opacity="0.5"/>
<circle cx="557.6" cy="278.3" r="2.6" fill="#7e8896" opacity="0.5"/>
<circle cx="299.1" cy="266.0" r="2.6" fill="#7e8896" opacity="0.5"/>
<circle cx="684.4" cy="305.6" r="2.6" fill="#7e8896" opacity="0.5"/>
<circle cx="332.3" cy="297.9" r="2.6" fill="#7e8896" opacity="0.5"/>
<circle cx="462.0" cy="261.5" r="2.6" fill="#7e8896" opacity="0.5"/>
<circle cx="544.2" cy="288.0" r="2.6" fill="#7e8896" opacity="0.5"/>
<circle cx="389.6" cy="284.0" r="2.6" fill="#7e8896" opacity="0.5"/>
<circle cx="449.1" cy="312.0" r="2.6" fill="#7e8896" opacity="0.5"/>
<circle cx="473.2" cy="300.4" r="2.6" fill="#7e8896" opacity="0.5"/>
<circle cx="415.7" cy="265.0" r="2.6" fill="#7e8896" opacity="0.5"/>
<circle cx="477.0" cy="320.4" r="2.6" fill="#7e8896" opacity="0.5"/>
<circle cx="319.1" cy="251.4" r="2.6" fill="#7e8896" opacity="0.5"/>
<circle cx="419.4" cy="275.4" r="2.6" fill="#7e8896" opacity="0.5"/>
<circle cx="291.0" cy="302.6" r="2.6" fill="#7e8896" opacity="0.5"/>
<circle cx="256.8" cy="254.2" r="2.6" fill="#7e8896" opacity="0.5"/>
<circle cx="529.8" cy="281.1" r="2.6" fill="#7e8896" opacity="0.5"/>
<circle cx="228.3" cy="245.1" r="2.6" fill="#7e8896" opacity="0.5"/>
<circle cx="586.2" cy="295.5" r="2.6" fill="#7e8896" opacity="0.5"/>
<circle cx="280.5" cy="303.2" r="2.6" fill="#7e8896" opacity="0.5"/>
<circle cx="654.7" cy="287.8" r="2.6" fill="#7e8896" opacity="0.5"/>
<circle cx="664.8" cy="312.0" r="2.6" fill="#7e8896" opacity="0.5"/>
<circle cx="587.8" cy="267.1" r="2.6" fill="#7e8896" opacity="0.5"/>
<circle cx="522.7" cy="297.6" r="2.6" fill="#7e8896" opacity="0.5"/>
<circle cx="469.7" cy="289.5" r="2.6" fill="#7e8896" opacity="0.5"/>
<circle cx="353.0" cy="288.4" r="2.6" fill="#7e8896" opacity="0.5"/>
<circle cx="595.2" cy="278.5" r="2.6" fill="#7e8896" opacity="0.5"/>
<circle cx="329.2" cy="309.2" r="2.6" fill="#7e8896" opacity="0.5"/>
<circle cx="243.5" cy="317.6" r="2.6" fill="#7e8896" opacity="0.5"/>
<circle cx="586.8" cy="279.9" r="2.6" fill="#7e8896" opacity="0.5"/>
<circle cx="546.8" cy="295.1" r="2.6" fill="#7e8896" opacity="0.5"/>
<circle cx="282.2" cy="246.9" r="2.6" fill="#7e8896" opacity="0.5"/>
<circle cx="317.5" cy="298.1" r="2.6" fill="#7e8896" opacity="0.5"/>
<circle cx="452.0" cy="293.8" r="2.6" fill="#7e8896" opacity="0.5"/>
<circle cx="264.8" cy="321.4" r="2.6" fill="#7e8896" opacity="0.5"/>
<circle cx="575.9" cy="307.8" r="2.6" fill="#7e8896" opacity="0.5"/>
<circle cx="572.7" cy="264.8" r="2.6" fill="#7e8896" opacity="0.5"/>
<circle cx="308.9" cy="272.9" r="2.6" fill="#7e8896" opacity="0.5"/>
<circle cx="529.8" cy="295.5" r="2.6" fill="#7e8896" opacity="0.5"/>
<circle cx="583.8" cy="243.8" r="2.6" fill="#7e8896" opacity="0.5"/>
<circle cx="241.4" cy="278.9" r="2.6" fill="#7e8896" opacity="0.5"/>
<circle cx="231.3" cy="255.4" r="2.6" fill="#7e8896" opacity="0.5"/>
<circle cx="268.7" cy="251.4" r="2.6" fill="#7e8896" opacity="0.5"/>
<circle cx="398.0" cy="246.7" r="2.6" fill="#7e8896" opacity="0.5"/>
<circle cx="296.7" cy="303.5" r="2.6" fill="#7e8896" opacity="0.5"/>
<circle cx="453.7" cy="252.3" r="2.6" fill="#7e8896" opacity="0.5"/>
<circle cx="248.8" cy="261.8" r="2.6" fill="#7e8896" opacity="0.5"/>
<circle cx="559.5" cy="273.3" r="2.6" fill="#7e8896" opacity="0.5"/>
<circle cx="283.8" cy="311.7" r="2.6" fill="#7e8896" opacity="0.5"/>
<circle cx="298.7" cy="248.4" r="2.6" fill="#7e8896" opacity="0.5"/>
<circle cx="568.6" cy="277.9" r="2.6" fill="#7e8896" opacity="0.5"/>
<circle cx="313.2" cy="286.0" r="2.6" fill="#7e8896" opacity="0.5"/>
<circle cx="510.1" cy="312.7" r="2.6" fill="#7e8896" opacity="0.5"/>
<circle cx="361.8" cy="307.5" r="2.6" fill="#7e8896" opacity="0.5"/>
<circle cx="374.6" cy="311.1" r="2.6" fill="#7e8896" opacity="0.5"/>
<circle cx="758.8" cy="264.3" r="2.6" fill="#7e8896" opacity="0.5"/>
<circle cx="373.6" cy="275.2" r="2.6" fill="#7e8896" opacity="0.5"/>
<circle cx="537.7" cy="270.7" r="2.6" fill="#7e8896" opacity="0.5"/>
<circle cx="530.6" cy="312.7" r="2.6" fill="#7e8896" opacity="0.5"/>
<circle cx="535.7" cy="318.6" r="2.6" fill="#7e8896" opacity="0.5"/>
<circle cx="279.9" cy="254.1" r="2.6" fill="#7e8896" opacity="0.5"/>
<circle cx="430.3" cy="256.1" r="2.6" fill="#7e8896" opacity="0.5"/>
<circle cx="715.2" cy="260.6" r="2.6" fill="#7e8896" opacity="0.5"/>
<circle cx="722.8" cy="260.7" r="2.6" fill="#7e8896" opacity="0.5"/>
<circle cx="270.0" cy="280.8" r="2.6" fill="#7e8896" opacity="0.5"/>
<circle cx="265.4" cy="289.1" r="2.6" fill="#7e8896" opacity="0.5"/>
<circle cx="689.3" cy="263.0" r="2.6" fill="#7e8896" opacity="0.5"/>
<circle cx="512.0" cy="242.3" r="2.6" fill="#7e8896" opacity="0.5"/>
<circle cx="474.4" cy="275.5" r="2.6" fill="#7e8896" opacity="0.5"/>
<circle cx="262.9" cy="271.5" r="2.6" fill="#7e8896" opacity="0.5"/>
<circle cx="714.8" cy="287.3" r="2.6" fill="#7e8896" opacity="0.5"/>
<circle cx="551.3" cy="318.2" r="2.6" fill="#7e8896" opacity="0.5"/>
<circle cx="577.7" cy="297.2" r="2.6" fill="#7e8896" opacity="0.5"/>
<circle cx="611.8" cy="283.2" r="2.6" fill="#7e8896" opacity="0.5"/>
<circle cx="300.4" cy="291.4" r="2.6" fill="#7e8896" opacity="0.5"/>
<circle cx="596.1" cy="296.1" r="2.6" fill="#7e8896" opacity="0.5"/>
<circle cx="573.7" cy="246.3" r="2.6" fill="#7e8896" opacity="0.5"/>
<circle cx="335.3" cy="314.0" r="2.6" fill="#7e8896" opacity="0.5"/>
<circle cx="567.0" cy="304.4" r="2.6" fill="#7e8896" opacity="0.5"/>
<circle cx="369.0" cy="312.0" r="2.6" fill="#7e8896" opacity="0.5"/>
<circle cx="276.4" cy="305.8" r="2.6" fill="#7e8896" opacity="0.5"/>
<circle cx="465.7" cy="273.4" r="2.6" fill="#7e8896" opacity="0.5"/>
<circle cx="239.8" cy="273.9" r="2.6" fill="#7e8896" opacity="0.5"/>
<circle cx="626.1" cy="250.3" r="2.6" fill="#7e8896" opacity="0.5"/>
<circle cx="519.0" cy="292.7" r="2.6" fill="#7e8896" opacity="0.5"/>
<circle cx="433.3" cy="247.0" r="2.6" fill="#7e8896" opacity="0.5"/>
<circle cx="597.2" cy="247.4" r="2.6" fill="#7e8896" opacity="0.5"/>
<circle cx="427.0" cy="258.7" r="2.6" fill="#7e8896" opacity="0.5"/>
<circle cx="676.3" cy="255.0" r="2.6" fill="#7e8896" opacity="0.5"/>
<circle cx="272.2" cy="269.2" r="2.6" fill="#7e8896" opacity="0.5"/>
<circle cx="724.7" cy="246.2" r="2.6" fill="#7e8896" opacity="0.5"/>
<circle cx="536.6" cy="242.0" r="2.6" fill="#7e8896" opacity="0.5"/>
<circle cx="338.9" cy="254.1" r="2.6" fill="#7e8896" opacity="0.5"/>
<circle cx="495.9" cy="250.1" r="2.6" fill="#7e8896" opacity="0.5"/>
<circle cx="530.6" cy="271.1" r="2.6" fill="#7e8896" opacity="0.5"/>
<circle cx="290.5" cy="244.0" r="2.6" fill="#7e8896" opacity="0.5"/>
<circle cx="536.2" cy="311.9" r="2.6" fill="#7e8896" opacity="0.5"/>
<circle cx="703.1" cy="291.1" r="2.6" fill="#7e8896" opacity="0.5"/>
<circle cx="258.3" cy="253.9" r="2.6" fill="#7e8896" opacity="0.5"/>
<circle cx="760.2" cy="262.2" r="2.6" fill="#7e8896" opacity="0.5"/>
<circle cx="546.3" cy="269.8" r="2.6" fill="#7e8896" opacity="0.5"/>
<circle cx="394.1" cy="271.1" r="2.6" fill="#7e8896" opacity="0.5"/>
<circle cx="315.0" cy="251.8" r="2.6" fill="#7e8896" opacity="0.5"/>
<circle cx="342.3" cy="309.9" r="2.6" fill="#7e8896" opacity="0.5"/>
<circle cx="450.7" cy="321.4" r="2.6" fill="#7e8896" opacity="0.5"/>
<circle cx="290.1" cy="279.3" r="2.6" fill="#7e8896" opacity="0.5"/>
<circle cx="299.8" cy="280.7" r="2.6" fill="#7e8896" opacity="0.5"/>
<circle cx="331.3" cy="248.9" r="2.6" fill="#7e8896" opacity="0.5"/>
<circle cx="394.1" cy="250.2" r="2.6" fill="#7e8896" opacity="0.5"/>
<circle cx="687.5" cy="269.4" r="2.6" fill="#7e8896" opacity="0.5"/>
<circle cx="494.2" cy="263.2" r="2.6" fill="#7e8896" opacity="0.5"/>
<circle cx="284.7" cy="308.3" r="2.6" fill="#7e8896" opacity="0.5"/>
<circle cx="465.4" cy="254.9" r="2.6" fill="#7e8896" opacity="0.5"/>
<circle cx="290.3" cy="243.8" r="2.6" fill="#7e8896" opacity="0.5"/>
<circle cx="321.5" cy="318.1" r="2.6" fill="#7e8896" opacity="0.5"/>
<circle cx="509.4" cy="284.3" r="2.6" fill="#7e8896" opacity="0.5"/>
<circle cx="400.8" cy="253.7" r="2.6" fill="#7e8896" opacity="0.5"/>
<circle cx="370.5" cy="285.5" r="2.6" fill="#7e8896" opacity="0.5"/>
<circle cx="302.3" cy="244.2" r="2.6" fill="#7e8896" opacity="0.5"/>
<circle cx="469.1" cy="284.2" r="2.6" fill="#7e8896" opacity="0.5"/>
<circle cx="455.9" cy="320.3" r="2.6" fill="#7e8896" opacity="0.5"/>
<circle cx="633.2" cy="311.1" r="2.6" fill="#7e8896" opacity="0.5"/>
<circle cx="278.9" cy="297.7" r="2.6" fill="#7e8896" opacity="0.5"/>
<circle cx="367.4" cy="262.9" r="2.6" fill="#7e8896" opacity="0.5"/>
<circle cx="286.7" cy="271.3" r="2.6" fill="#7e8896" opacity="0.5"/>
<circle cx="423.2" cy="255.4" r="2.6" fill="#7e8896" opacity="0.5"/>
<circle cx="246.8" cy="303.8" r="2.6" fill="#7e8896" opacity="0.5"/>
<circle cx="309.3" cy="284.6" r="2.6" fill="#7e8896" opacity="0.5"/>
<circle cx="286.1" cy="304.3" r="2.6" fill="#7e8896" opacity="0.5"/>
<circle cx="598.7" cy="268.4" r="2.6" fill="#7e8896" opacity="0.5"/>
<circle cx="645.3" cy="259.8" r="2.6" fill="#7e8896" opacity="0.5"/>
<circle cx="503.8" cy="306.9" r="2.6" fill="#7e8896" opacity="0.5"/>
<circle cx="432.2" cy="320.8" r="2.6" fill="#7e8896" opacity="0.5"/>
<circle cx="530.7" cy="310.2" r="2.6" fill="#7e8896" opacity="0.5"/>
<circle cx="632.7" cy="306.5" r="2.6" fill="#7e8896" opacity="0.5"/>
<circle cx="604.6" cy="307.5" r="2.6" fill="#7e8896" opacity="0.5"/>
<circle cx="358.4" cy="301.2" r="2.6" fill="#7e8896" opacity="0.5"/>
<circle cx="599.9" cy="260.1" r="2.6" fill="#7e8896" opacity="0.5"/>
<circle cx="496.7" cy="283.4" r="2.6" fill="#7e8896" opacity="0.5"/>
<circle cx="271.4" cy="270.4" r="2.6" fill="#7e8896" opacity="0.5"/>
<circle cx="259.0" cy="244.3" r="2.6" fill="#7e8896" opacity="0.5"/>
<circle cx="252.3" cy="244.2" r="2.6" fill="#7e8896" opacity="0.5"/>
<circle cx="351.8" cy="264.4" r="2.6" fill="#7e8896" opacity="0.5"/>
<circle cx="646.7" cy="262.7" r="2.6" fill="#7e8896" opacity="0.5"/>
<circle cx="410.6" cy="297.4" r="2.6" fill="#7e8896" opacity="0.5"/>
<circle cx="301.3" cy="318.5" r="2.6" fill="#7e8896" opacity="0.5"/>
<circle cx="503.0" cy="277.8" r="2.6" fill="#7e8896" opacity="0.5"/>
<circle cx="311.2" cy="317.0" r="2.6" fill="#7e8896" opacity="0.5"/>
<circle cx="270.2" cy="321.0" r="2.6" fill="#7e8896" opacity="0.5"/>
<circle cx="278.5" cy="318.4" r="2.6" fill="#7e8896" opacity="0.5"/>
<circle cx="664.1" cy="271.2" r="2.6" fill="#7e8896" opacity="0.5"/>
<circle cx="342.0" cy="259.6" r="2.6" fill="#7e8896" opacity="0.5"/>
<circle cx="455.5" cy="260.1" r="2.6" fill="#7e8896" opacity="0.5"/>
<circle cx="428.4" cy="257.7" r="2.6" fill="#7e8896" opacity="0.5"/>
<circle cx="479.7" cy="258.3" r="2.6" fill="#7e8896" opacity="0.5"/>
<circle cx="273.3" cy="291.9" r="2.6" fill="#7e8896" opacity="0.5"/>
<circle cx="237.5" cy="314.0" r="2.6" fill="#7e8896" opacity="0.5"/>
<circle cx="313.7" cy="309.2" r="2.6" fill="#7e8896" opacity="0.5"/>
<circle cx="247.9" cy="280.4" r="2.6" fill="#7e8896" opacity="0.5"/>
<circle cx="687.6" cy="294.2" r="2.6" fill="#7e8896" opacity="0.5"/>
<circle cx="303.4" cy="306.0" r="2.6" fill="#7e8896" opacity="0.5"/>
<circle cx="383.7" cy="248.8" r="2.6" fill="#7e8896" opacity="0.5"/>
<circle cx="284.3" cy="294.8" r="2.6" fill="#7e8896" opacity="0.5"/>
<circle cx="268.1" cy="314.8" r="2.6" fill="#7e8896" opacity="0.5"/>
<circle cx="470.6" cy="304.6" r="2.6" fill="#7e8896" opacity="0.5"/>
<circle cx="384.0" cy="302.0" r="2.6" fill="#7e8896" opacity="0.5"/>
<circle cx="552.7" cy="280.2" r="2.6" fill="#7e8896" opacity="0.5"/>
<circle cx="315.6" cy="256.3" r="2.6" fill="#7e8896" opacity="0.5"/>
<circle cx="567.1" cy="305.1" r="2.6" fill="#7e8896" opacity="0.5"/>
<circle cx="528.3" cy="268.6" r="2.6" fill="#7e8896" opacity="0.5"/>
<circle cx="548.6" cy="306.1" r="2.6" fill="#7e8896" opacity="0.5"/>
<circle cx="353.6" cy="319.7" r="2.6" fill="#7e8896" opacity="0.5"/>
<circle cx="327.7" cy="273.7" r="2.6" fill="#7e8896" opacity="0.5"/>
<circle cx="440.9" cy="274.1" r="2.6" fill="#7e8896" opacity="0.5"/>
<circle cx="370.3" cy="317.7" r="2.6" fill="#7e8896" opacity="0.5"/>
<circle cx="596.1" cy="300.0" r="2.6" fill="#7e8896" opacity="0.5"/>
<circle cx="356.7" cy="255.6" r="2.6" fill="#7e8896" opacity="0.5"/>
<circle cx="295.3" cy="252.2" r="2.6" fill="#7e8896" opacity="0.5"/>
<circle cx="373.5" cy="254.1" r="2.6" fill="#7e8896" opacity="0.5"/>
<circle cx="580.6" cy="314.4" r="2.6" fill="#7e8896" opacity="0.5"/>
<circle cx="222.2" cy="306.5" r="2.6" fill="#7e8896" opacity="0.5"/>
<circle cx="273.8" cy="253.7" r="2.6" fill="#7e8896" opacity="0.5"/>
<circle cx="266.5" cy="308.1" r="2.6" fill="#7e8896" opacity="0.5"/>
<circle cx="322.9" cy="320.4" r="2.6" fill="#7e8896" opacity="0.5"/>
<circle cx="634.3" cy="294.6" r="2.6" fill="#7e8896" opacity="0.5"/>
<circle cx="360.1" cy="270.0" r="2.6" fill="#7e8896" opacity="0.5"/>
<circle cx="437.3" cy="285.9" r="2.6" fill="#7e8896" opacity="0.5"/>
<circle cx="512.3" cy="252.5" r="2.6" fill="#7e8896" opacity="0.5"/>
<circle cx="336.0" cy="243.1" r="2.6" fill="#7e8896" opacity="0.5"/>
<circle cx="570.2" cy="319.7" r="2.6" fill="#7e8896" opacity="0.5"/>
<circle cx="601.3" cy="294.0" r="2.6" fill="#7e8896" opacity="0.5"/>
<circle cx="565.1" cy="284.1" r="2.6" fill="#7e8896" opacity="0.5"/>
<circle cx="324.4" cy="316.7" r="2.6" fill="#7e8896" opacity="0.5"/>
<circle cx="597.8" cy="276.7" r="2.6" fill="#7e8896" opacity="0.5"/>
<circle cx="313.4" cy="311.7" r="2.6" fill="#7e8896" opacity="0.5"/>
<circle cx="299.8" cy="308.1" r="2.6" fill="#7e8896" opacity="0.5"/>
<circle cx="557.5" cy="258.9" r="2.6" fill="#7e8896" opacity="0.5"/>
<circle cx="328.9" cy="139.1" r="3.1" fill="#2f8f6a" opacity="0.85"/>
<circle cx="358.3" cy="141.2" r="3.1" fill="#2f8f6a" opacity="0.85"/>
<circle cx="388.5" cy="138.5" r="3.1" fill="#2f8f6a" opacity="0.85"/>
<circle cx="401.9" cy="156.5" r="3.1" fill="#2f8f6a" opacity="0.85"/>
<circle cx="411.0" cy="139.5" r="3.1" fill="#2f8f6a" opacity="0.85"/>
<circle cx="416.0" cy="147.8" r="3.1" fill="#2f8f6a" opacity="0.85"/>
<circle cx="422.6" cy="132.8" r="3.1" fill="#2f8f6a" opacity="0.85"/>
<circle cx="432.6" cy="173.3" r="3.1" fill="#2f8f6a" opacity="0.85"/>
<circle cx="486.7" cy="144.4" r="3.1" fill="#2f8f6a" opacity="0.85"/>
<circle cx="496.9" cy="149.8" r="3.1" fill="#2f8f6a" opacity="0.85"/>
<circle cx="504.9" cy="156.3" r="3.1" fill="#2f8f6a" opacity="0.85"/>
<circle cx="516.0" cy="173.0" r="3.1" fill="#2f8f6a" opacity="0.85"/>
<circle cx="526.9" cy="147.9" r="3.1" fill="#2f8f6a" opacity="0.85"/>
<circle cx="544.1" cy="173.7" r="3.1" fill="#2f8f6a" opacity="0.85"/>
<circle cx="560.5" cy="152.1" r="3.1" fill="#2f8f6a" opacity="0.85"/>
<circle cx="566.8" cy="153.7" r="3.1" fill="#2f8f6a" opacity="0.85"/>
<circle cx="569.2" cy="153.2" r="3.1" fill="#2f8f6a" opacity="0.85"/>
<circle cx="580.4" cy="127.0" r="3.1" fill="#2f8f6a" opacity="0.85"/>
<circle cx="592.2" cy="148.9" r="3.1" fill="#2f8f6a" opacity="0.85"/>
<circle cx="594.4" cy="135.5" r="3.1" fill="#2f8f6a" opacity="0.85"/>
<circle cx="595.5" cy="126.2" r="3.1" fill="#2f8f6a" opacity="0.85"/>
<circle cx="595.7" cy="167.6" r="3.1" fill="#2f8f6a" opacity="0.85"/>
<circle cx="597.5" cy="135.0" r="3.1" fill="#2f8f6a" opacity="0.85"/>
<circle cx="598.9" cy="150.6" r="3.1" fill="#2f8f6a" opacity="0.85"/>
<circle cx="601.4" cy="163.7" r="3.1" fill="#2f8f6a" opacity="0.85"/>
<circle cx="605.3" cy="154.9" r="3.1" fill="#2f8f6a" opacity="0.85"/>
<circle cx="611.1" cy="143.0" r="3.1" fill="#2f8f6a" opacity="0.85"/>
<circle cx="611.7" cy="153.0" r="3.1" fill="#2f8f6a" opacity="0.85"/>
<circle cx="612.8" cy="154.9" r="3.1" fill="#2f8f6a" opacity="0.85"/>
<circle cx="615.9" cy="166.8" r="3.1" fill="#2f8f6a" opacity="0.85"/>
<circle cx="621.7" cy="131.5" r="3.1" fill="#2f8f6a" opacity="0.85"/>
<circle cx="622.3" cy="155.1" r="3.1" fill="#2f8f6a" opacity="0.85"/>
<circle cx="622.4" cy="138.9" r="3.1" fill="#2f8f6a" opacity="0.85"/>
<circle cx="630.4" cy="140.4" r="3.1" fill="#2f8f6a" opacity="0.85"/>
<circle cx="634.5" cy="166.2" r="3.1" fill="#2f8f6a" opacity="0.85"/>
<circle cx="634.8" cy="152.4" r="3.1" fill="#2f8f6a" opacity="0.85"/>
<circle cx="636.4" cy="155.2" r="3.1" fill="#2f8f6a" opacity="0.85"/>
<circle cx="647.2" cy="165.5" r="3.1" fill="#2f8f6a" opacity="0.85"/>
<circle cx="648.8" cy="173.4" r="3.1" fill="#2f8f6a" opacity="0.85"/>
<circle cx="652.2" cy="149.0" r="3.1" fill="#2f8f6a" opacity="0.85"/>
<circle cx="654.3" cy="157.9" r="3.1" fill="#2f8f6a" opacity="0.85"/>
<circle cx="657.5" cy="152.3" r="3.1" fill="#2f8f6a" opacity="0.85"/>
<circle cx="660.9" cy="152.6" r="3.1" fill="#2f8f6a" opacity="0.85"/>
<circle cx="662.6" cy="162.0" r="3.1" fill="#2f8f6a" opacity="0.85"/>
<circle cx="664.1" cy="149.5" r="3.1" fill="#2f8f6a" opacity="0.85"/>
<circle cx="668.8" cy="153.7" r="3.1" fill="#2f8f6a" opacity="0.85"/>
<circle cx="669.8" cy="150.9" r="3.1" fill="#2f8f6a" opacity="0.85"/>
<circle cx="676.4" cy="175.0" r="3.1" fill="#2f8f6a" opacity="0.85"/>
<circle cx="676.8" cy="162.4" r="3.1" fill="#2f8f6a" opacity="0.85"/>
<circle cx="677.3" cy="171.6" r="3.1" fill="#2f8f6a" opacity="0.85"/>
<circle cx="681.4" cy="175.0" r="3.1" fill="#2f8f6a" opacity="0.85"/>
<circle cx="688.7" cy="139.5" r="3.1" fill="#2f8f6a" opacity="0.85"/>
<circle cx="690.9" cy="155.1" r="3.1" fill="#2f8f6a" opacity="0.85"/>
<circle cx="698.1" cy="175.0" r="3.1" fill="#2f8f6a" opacity="0.85"/>
<circle cx="701.4" cy="169.7" r="3.1" fill="#2f8f6a" opacity="0.85"/>
<circle cx="710.9" cy="133.1" r="3.1" fill="#2f8f6a" opacity="0.85"/>
<circle cx="713.6" cy="132.3" r="3.1" fill="#2f8f6a" opacity="0.85"/>
<circle cx="714.1" cy="149.0" r="3.1" fill="#2f8f6a" opacity="0.85"/>
<circle cx="714.1" cy="129.8" r="3.1" fill="#2f8f6a" opacity="0.85"/>
<circle cx="716.8" cy="138.5" r="3.1" fill="#2f8f6a" opacity="0.85"/>
<circle cx="717.1" cy="129.8" r="3.1" fill="#2f8f6a" opacity="0.85"/>
<circle cx="723.1" cy="160.8" r="3.1" fill="#2f8f6a" opacity="0.85"/>
<circle cx="723.2" cy="166.8" r="3.1" fill="#2f8f6a" opacity="0.85"/>
<circle cx="725.2" cy="172.6" r="3.1" fill="#2f8f6a" opacity="0.85"/>
<circle cx="739.6" cy="134.0" r="3.1" fill="#2f8f6a" opacity="0.85"/>
<circle cx="742.3" cy="163.2" r="3.1" fill="#2f8f6a" opacity="0.85"/>
<circle cx="746.8" cy="160.3" r="3.1" fill="#2f8f6a" opacity="0.85"/>
<circle cx="747.6" cy="133.4" r="3.1" fill="#2f8f6a" opacity="0.85"/>
<circle cx="751.8" cy="171.9" r="3.1" fill="#2f8f6a" opacity="0.85"/>
<circle cx="752.0" cy="176.3" r="3.1" fill="#2f8f6a" opacity="0.85"/>
<circle cx="757.1" cy="137.4" r="3.1" fill="#2f8f6a" opacity="0.85"/>
<circle cx="760.2" cy="175.5" r="3.1" fill="#2f8f6a" opacity="0.85"/>
<circle cx="763.4" cy="146.7" r="3.1" fill="#2f8f6a" opacity="0.85"/>
<circle cx="770.6" cy="151.3" r="3.1" fill="#2f8f6a" opacity="0.85"/>
<circle cx="777.9" cy="177.5" r="3.1" fill="#2f8f6a" opacity="0.85"/>
<circle cx="319.2" cy="152" r="5.5" fill="none" stroke="#16202e" stroke-width="1.6"/><circle cx="319.2" cy="152" r="3.4" fill="#2f8f6a"/>
<text x="200" y="156" font-size="13.5" font-weight="600" text-anchor="end" fill="#2f8f6a">makes (76)</text>
<text x="200" y="278" font-size="13.5" font-weight="600" text-anchor="end" fill="#5a6472">misses &amp;</text>
<text x="200" y="295" font-size="13.5" font-weight="600" text-anchor="end" fill="#5a6472">non-shots (236)</text>
<line x1="214" y1="350" x2="858" y2="350" stroke="#c7cdd6"/>
<line x1="214.0" y1="350" x2="214.0" y2="355" stroke="#c7cdd6"/><text x="214.0" y="370" font-size="12" text-anchor="middle" fill="#8892a0">0.00</text>
<line x1="375.0" y1="350" x2="375.0" y2="355" stroke="#c7cdd6"/><text x="375.0" y="370" font-size="12" text-anchor="middle" fill="#8892a0">0.25</text>
<line x1="536.0" y1="350" x2="536.0" y2="355" stroke="#c7cdd6"/><text x="536.0" y="370" font-size="12" text-anchor="middle" fill="#8892a0">0.50</text>
<line x1="697.0" y1="350" x2="697.0" y2="355" stroke="#c7cdd6"/><text x="697.0" y="370" font-size="12" text-anchor="middle" fill="#8892a0">0.75</text>
<line x1="858.0" y1="350" x2="858.0" y2="355" stroke="#c7cdd6"/><text x="858.0" y="370" font-size="12" text-anchor="middle" fill="#8892a0">1.00</text>
<text x="536" y="388" font-size="12.5" text-anchor="middle" fill="#8892a0">make-probability score</text>
<text x="328.2" y="120" font-size="12.5" font-weight="700" fill="#c9553d">cutoff 0.163</text>
<text x="40" y="414" font-size="13.5" fill="#8892a0"><tspan font-weight="700" fill="#16202e">Not one make falls below the line.</tspan> Makes and misses overlap above it, so it can’t climb higher without risking a basket.</text>
</svg>